<svg width="166" height="184" viewBox="0 0 166 184" fill="none" xmlns="http://www.w3.org/2000/svg">
<ellipse cx="83" cy="85" rx="83" ry="82" fill="#1C1C22"/>
<path d="M56.307 84.3025C50.6754 84.3681 45.6424 83.6267 41.2081 82.0783C36.7737 80.5298 33.2602 78.3626 30.6676 75.5766C28.139 72.7899 26.8541 69.6366 26.8131 66.1169C26.7557 61.1892 28.4973 56.8486 32.0378 53.0951C35.5783 49.3416 40.536 46.3717 46.911 44.1852C53.2859 41.9988 60.6331 40.8572 68.9526 40.7602C75.0321 40.6894 81.0883 41.3549 87.1211 42.7567C93.1538 44.1585 98.9064 46.2356 104.379 48.988C109.851 51.6765 114.753 54.9156 119.085 58.7054L118.804 59.2847C114.471 55.4949 109.569 52.2558 104.098 49.5674C98.6251 46.8149 92.9045 44.7374 86.9358 43.3349C80.967 41.9323 74.9749 41.2661 68.9593 41.3362C62.9437 41.4063 57.3831 42.0791 52.2777 43.3547C47.1714 44.5662 42.7431 46.2819 38.9927 48.5018C35.3063 50.7209 32.4247 53.3466 30.3479 56.379C28.3343 59.3467 27.3481 62.5904 27.3891 66.1102C27.4286 69.5019 28.7123 72.5592 31.2402 75.2819C33.7673 77.9407 37.2161 80.0446 41.5864 81.5938C45.956 83.079 50.8926 83.7895 56.3963 83.7254C60.812 83.674 65.4129 83.0443 70.1992 81.8365C74.9847 80.5646 79.7337 78.9092 84.4463 76.8702C89.2221 74.7664 93.7066 72.378 97.8997 69.7049C102.156 66.9672 105.899 64.1394 109.13 61.2215C112.423 58.239 114.981 55.265 116.802 52.2995C118.687 49.2694 119.614 46.4104 119.583 43.7226C119.568 42.4426 119.171 41.3912 118.394 40.5682C117.68 39.7445 116.715 39.3397 115.499 39.3538C113.259 39.3799 110.742 40.2733 107.946 42.034C105.15 43.7307 102.36 46.0034 99.5769 48.852C96.8572 51.6359 94.3328 54.7055 92.0037 58.0608C89.7379 61.3515 87.8884 64.6692 86.4553 68.0142C85.0854 71.2943 84.4161 74.2783 84.4474 76.9662C84.4825 79.9739 85.1824 82.366 86.5472 84.1422C87.9112 85.8544 89.7452 86.6971 92.049 86.6703C94.9288 86.6367 97.96 85.8653 101.143 84.3561C104.389 82.8462 107.63 80.7923 110.864 78.1945C114.097 75.5326 117.166 72.5527 120.072 69.2546C122.978 65.9565 125.562 62.5022 127.824 58.8916C130.085 55.217 131.867 51.58 133.169 47.9806C134.47 44.3171 135.103 40.9175 135.066 37.7818C135.02 33.814 133.993 30.7858 131.984 28.697C130.039 26.5436 127.179 25.4888 123.403 25.5328C119.371 25.5798 115.127 26.5893 110.669 28.5614C106.211 30.4694 101.762 33.1135 97.3208 36.4934C92.9431 39.8087 88.7634 43.6336 84.7816 47.9683C80.8631 52.2382 77.3635 56.7593 74.2829 61.5315C71.2656 66.239 68.8885 70.971 67.1518 75.7276C65.4151 80.4841 64.5717 85.0063 64.6217 89.294C64.694 95.5015 66.2207 100.188 69.2018 103.354C72.2469 106.518 76.6812 108.067 82.5048 107.999C85.3846 107.965 88.5454 107.32 91.987 106.064C95.4285 104.808 98.9609 103.103 102.584 100.948C106.206 98.7301 109.729 96.1609 113.151 93.2408C116.636 90.256 119.799 87.051 122.64 83.6256L123.312 83.6178C120.472 87.1071 117.278 90.3766 113.729 93.4261C110.244 96.4109 106.658 99.0449 102.973 101.328C99.2861 103.547 95.6585 105.317 92.0897 106.639C88.5841 107.896 85.3914 108.541 82.5116 108.575C75.664 108.655 70.2649 106.701 66.3142 102.715C62.3635 98.7289 60.3467 93.184 60.264 86.0805C60.2103 81.4728 61.0198 76.7911 62.6925 72.0353C64.4292 67.2787 66.839 62.6103 69.9218 58.0301C73.0047 53.4499 76.5712 49.184 80.6215 45.2326C84.6709 41.2171 89.046 37.6779 93.7466 34.6149C98.4473 31.552 103.252 29.1598 108.16 27.4385C113.132 25.6525 117.985 24.7319 122.721 24.6767C126.497 24.6327 129.583 25.8128 131.979 28.2171C134.375 30.6213 135.596 33.8073 135.642 37.775C135.68 41.0388 135.049 44.5024 133.747 48.1658C132.446 51.8292 130.632 55.4986 128.307 59.174C126.046 62.8486 123.431 66.3673 120.462 69.7301C117.557 73.0922 114.455 76.0725 111.157 78.6711C107.923 81.2689 104.651 83.3552 101.341 84.9299C98.0947 86.4398 94.9995 87.2119 92.0557 87.2462C89.6239 87.2745 87.6612 86.3693 86.1677 84.5306C84.6734 82.6279 83.908 80.1087 83.8715 76.9729C83.8394 74.2211 84.5079 71.1731 85.8771 67.8289C87.3095 64.42 89.1902 61.0378 91.5192 57.6825C93.8476 54.2631 96.4032 51.1291 99.1862 48.2805C102.033 45.4311 104.855 43.1581 107.651 41.4614C110.511 39.7 113.093 38.8058 115.397 38.779C116.869 38.7618 118.026 39.1964 118.868 40.0826C119.71 40.9049 120.14 42.116 120.158 43.7158C120.191 46.4677 119.265 49.3906 117.38 52.4848C115.56 55.5142 113.003 58.5522 109.71 61.5988C106.417 64.5814 102.642 67.4415 98.3853 70.1793C94.1282 72.8531 89.6117 75.2419 84.8359 77.3457C80.0601 79.4494 75.2154 81.138 70.3019 82.4113C65.4517 83.6199 60.7867 84.2503 56.307 84.3025ZM15.4813 107.052C15.5215 110.507 16.4235 113.761 18.1872 116.813C19.8876 119.929 22.2555 122.654 25.2909 124.987C28.2623 127.32 31.6757 129.137 35.5311 130.436C39.4504 131.734 43.586 132.358 47.9377 132.307C55.4252 132.22 62.295 131.308 68.5472 129.571C74.8634 127.833 80.9117 125.075 86.692 121.295C92.5371 117.579 98.3677 112.614 104.184 106.402C110 100.19 116.152 92.5978 122.64 83.6256C124.466 81.0442 126.609 78.235 129.07 75.1982C131.594 72.0965 134.34 68.8323 137.308 65.4055L142.012 65.3507C140.295 66.2668 138.706 67.2774 137.247 68.3824C135.851 69.4228 134.363 70.7842 132.782 72.4667C131.202 74.1493 129.371 76.3147 127.29 78.9632C125.208 81.5476 122.654 84.8736 119.629 88.9411C114.216 96.7487 109.333 103.43 104.982 108.985C100.63 114.54 96.5555 119.132 92.7575 122.76C88.9603 126.453 85.1857 129.345 81.4338 131.437C77.7459 133.528 73.891 135.013 69.869 135.892C65.8469 136.771 61.3721 137.239 56.4444 137.296C50.9408 137.361 45.6834 136.59 40.6724 134.984C35.7261 133.442 31.3163 131.253 27.443 128.418C23.6344 125.646 20.6206 122.417 18.4015 118.73C16.1184 115.045 14.953 111.154 14.9053 107.058C14.8546 102.707 15.7999 98.6954 17.7413 95.0245C19.6819 91.2897 22.4281 88.0255 25.9798 85.2319C29.4675 82.4391 33.6022 80.2467 38.384 78.6549C43.2298 77.0624 48.4684 76.2333 54.1001 76.1677C59.7317 76.102 64.6363 76.813 68.8139 78.3004C72.9915 79.7878 76.2483 81.894 78.5842 84.619C80.9194 87.28 82.1086 90.4663 82.1518 94.1781C82.1883 97.3139 81.4227 100.267 79.8549 103.037C78.2863 105.744 76.106 108.137 73.3141 110.218C70.5221 112.299 67.245 113.937 63.4827 115.133C59.7843 116.328 55.7913 116.951 51.5036 117.001C45.872 117.066 41.3793 115.999 38.0254 113.797C34.7355 111.596 33.0689 108.639 33.0257 104.927C32.9996 102.687 33.8081 100.662 35.4511 98.8505C37.0933 96.9752 39.1281 95.8314 41.5555 95.4191L42.3268 95.6982C39.8994 96.1105 37.8319 97.1906 36.1241 98.9386C34.4804 100.686 33.6712 102.647 33.6965 104.823C33.7383 108.407 35.3394 111.237 38.4998 113.312C41.7249 115.451 46.0573 116.488 51.4969 116.425C55.6566 116.376 59.5536 115.755 63.188 114.56C66.887 113.429 70.1006 111.824 72.8285 109.744C75.6212 107.727 77.7702 105.398 79.2755 102.756C80.8441 100.05 81.6109 97.1926 81.5758 94.1848C81.5341 90.601 80.346 87.5107 78.0116 84.9137C75.7404 82.252 72.5484 80.209 68.4355 78.7848C64.3227 77.3606 59.5464 76.6802 54.1068 76.7436C48.4752 76.8092 43.3001 77.6056 38.5816 79.1327C33.863 80.6597 29.7595 82.7877 26.2711 85.5165C22.7827 88.2453 20.0997 91.4448 18.2224 95.1149C16.345 98.7851 15.4313 102.764 15.4813 107.052Z" fill="white"/>
<path d="M82.1267 65.3664H89.3267L115.535 125.078H116.111L138.095 65.3664H145.295L114.767 133.91H112.655L82.1267 65.3664Z" fill="#00FF99"/>
</svg>
