<svg width="306" height="306" viewBox="0 0 306 306" fill="none" xmlns="http://www.w3.org/2000/svg">
<mask id="mask0_412_1426" style="mask-type:alpha" maskUnits="userSpaceOnUse" x="0" y="0" width="306" height="306">
<circle cx="153" cy="153" r="153" fill="#D9D9D9"/>
</mask>
<g mask="url(#mask0_412_1426)">
<path d="M255.3 305.999C253.4 291.199 245 266.299 239.9 259.599C234.3 252.299 232 249.999 213.3 243.699C212.3 238.699 208.6 226.099 204.2 220.799C197.5 210.699 179.2 208.399 173.7 209.599C173.7 209.599 144.1 199.199 110 199.199C99.1996 201.599 86.6996 206.499 79.8996 216.799C75.2996 223.599 80.4996 225.799 78.1996 231.999C77.5996 233.599 63.5996 241.599 57.8996 246.399C55.2996 248.499 52.3996 253.799 50.3996 260.699C46.3996 274.799 50.6996 294.299 45.6996 311.299C36.0996 344.099 16.5996 353.899 16.5996 353.899H275C274.8 353.799 259.4 337.199 255.3 305.999Z" fill="white"/>
<path d="M253.8 306.2C251.8 293.1 247.8 280.1 242.7 267.9C240.2 262 236.4 256.3 231.1 252.8C228.4 251.1 225.4 249.8 222.3 248.5C219.2 247.3 216 246.2 212.9 245.1C212.4 244.9 212 244.5 211.9 244C211.5 242 211 240.1 210.4 238.1C207.8 230 205 221 197.4 216.3C191.6 212.8 184.7 211.1 178 210.8C176.7 210.8 175.3 210.8 174.1 211H173.7C173.6 211 173.4 211 173.3 210.9C168.5 208.6 163.2 207.2 158 205.8C142.4 202.2 126.1 200.7 110.1 200.6C100.3 202.9 86.6 208.3 80.6 218.3C79.6 219.9 79.1 221.5 79.3 223.3C79.5 225.3 80.2 227.5 79.7 229.6C79.5 230.5 79.3 231.5 78.9 232.3C78.1 233.4 76.8 234.1 75.8 234.8C70.6 238.2 65.3 241.2 60.3 244.7C58.6 245.9 57 247 55.8 248.7C52.3 253.7 50.2 259.7 49.3 265.7C47.7 277.9 49.3 290.3 47.7 302.5C45.9 314.7 41.2 326.5 34.6 336.9C30 343.9 24.4 350.4 17.3 354.9L16.6 352.1H275L273.9 354.6C270.9 351.2 268.5 347.5 266.3 343.6C259.5 332.2 255.5 319.3 253.8 306.2ZM256.8 305.8C257.9 314.3 260 322.7 263.2 330.7C266.4 338.6 270.4 346.3 276 352.8C276.8 353.7 276.1 355.4 274.9 355.3H16.5C15.7 355.3 15 354.6 15 353.8C15 353.2 15.3 352.7 15.8 352.5C17.4 351.6 19 350.3 20.5 349C33.6 337.2 41.8 319.7 44.5 302.3C46.8 286 42.5 268.4 49.8 252.9C51.5 249.3 53.6 245.5 57 243.2C63.2 238.6 70 235.2 76.1 230.7C76.2 230.7 76.2 230.6 76.2 230.6C76.1 230.7 76 230.9 76 231C76.6 229.6 76.8 228.4 76.6 226.8C76.3 224.8 75.8 222.1 76.5 220C76.8 218.8 77.4 217.7 78 216.8C85.2 206 97.9 201.2 110 198.5C113.4 198.6 116.9 198 120.3 198C125 198 129.8 198.7 134.5 199.3C148 201.4 161 205 174.3 207.9L173.4 207.8C176.5 207.2 179.4 207.5 182.4 207.9C201.6 210.8 208.1 219.2 213.3 237.1C213.9 239.1 214.4 241.1 214.9 243.2L213.9 242C223.5 245.4 234.3 248.5 240.4 257.4C242.6 260.1 244.2 263.3 245.6 266.5C250.7 279.3 254.7 292.2 256.8 305.8Z" fill="black"/>
<path d="M97.7002 240.2C105.1 256 116.6 269.4 130.3 280C130.8 280.4 130.3 281.2 129.7 280.9C117.5 275.1 107.2 265.2 101.1 253.2C99.1002 249.2 97.4003 244.9 96.8003 240.4C96.6003 239.9 97.4002 239.7 97.7002 240.2Z" fill="black"/>
<path d="M214.8 243.501C215.1 260.201 208.3 277.301 195.3 288.101C195 288.401 194.6 288.301 194.3 288.001C194 287.701 194.1 287.301 194.4 287.001C197.3 284.201 200.2 281.301 202.4 277.901C207 271.301 209.8 263.501 211.1 255.601C211.7 251.701 212.1 247.501 211.8 243.601C211.7 241.701 214.7 241.501 214.8 243.501Z" fill="black"/>
<path d="M155.9 283.2C153.6 291.3 151.7 300.1 152.8 308.5C153.1 310.4 150.2 310.9 149.8 308.9C149.3 304.3 149.9 299.8 150.7 295.4C151.6 291 152.7 286.8 154.2 282.6C154.6 281.6 156.3 282.1 155.9 283.2Z" fill="black"/>
<path d="M187.7 281.7C191 288.8 193.3 296.2 195.1 303.7C195.3 304.5 194.8 305.3 194 305.5C193.2 305.7 192.4 305.2 192.2 304.4C191.2 298.8 189.9 293.2 188.1 287.7C187.5 285.9 186.9 284.1 186.2 282.3C185.8 281.4 187.2 280.7 187.7 281.7Z" fill="black"/>
<path d="M80.3 231.6C84 251.8 98.2 268.9 115.3 279.8C121.1 283.5 127.3 286.7 133.7 289.3C134.1 289.5 134.3 289.9 134.1 290.3C134 290.7 133.5 290.9 133.2 290.7C126.6 288.3 120.2 285.3 114.2 281.7C102 274.5 91.3 264.5 84.1 252.3C80.4 246 77.5 239.4 76.1 232.2C75.9 231 76.7 229.9 77.9 229.7C79 229.4 80.2 230.3 80.3 231.6Z" fill="black"/>
<path d="M149.9 310.7C147.1 310.4 145.1 307.8 145.7 305L146.8 299.7C147.2 297.6 149.2 296.1 151.3 296.4C153.4 296.6 155.1 298.4 155.1 300.6V306C155.2 308.8 152.8 311 149.9 310.7Z" fill="black"/>
<path d="M196 307C193.3 308 190.4 306.4 189.7 303.6L188.4 298.3C187.9 296.2 189 294.1 191.1 293.3C193.1 292.6 195.4 293.5 196.3 295.4L198.7 300.3C199.9 303 198.7 306.1 196 307Z" fill="black"/>
<path d="M242.2 304C242.2 304 247.8 335.4 245.6 353.8" stroke="black" stroke-width="5.1257" stroke-miterlimit="10" stroke-linecap="round" stroke-linejoin="round"/>
<path d="M111.6 228C110.2 224 109.6 219.9 109.9 215.7C109.9 215.3 110.2 215.1 110.6 215.1C110.9 215.1 111.2 215.4 111.2 215.7C111.5 219.5 112.6 223.4 114.4 226.7C115.3 228.7 112.3 230 111.6 228Z" fill="black"/>
<path d="M179.2 233.3C176.4 227 169.5 223.8 163.4 221.6C159.6 220.4 155.4 219.5 151.4 218.9C141.7 217.4 128 215.1 118.3 214.1C118.2 214.1 118.2 213.9 118.3 213.9C121.1 213.6 123.9 213.6 126.7 213.6C135.1 213.8 143.5 214.7 151.8 216C160.1 217.3 169 219.8 175.3 225.8C177.3 227.9 179.1 230.3 179.6 233.2C179.7 233.5 179.3 233.6 179.2 233.3Z" fill="black"/>
<path d="M188.999 259.6C186.899 269.9 173.299 276.1 150.399 266.8C126.599 257.2 116.299 234.3 113.699 227.5C127.799 201.1 117.999 182.8 117.999 182.8C150.499 180 178.899 218 178.899 218L183.299 236.8C183.699 238.4 184.499 239.8 185.699 240.8C187.799 244.5 190.299 253 188.999 259.6Z" fill="white"/>
<path d="M113.2 227.8C115.1 224.9 116.3 221.5 117.1 218.2C118.6 211.3 119.1 204.3 119.2 197.3V194.7C118.9 192.1 118 189.4 117 187C115.7 183.8 120.4 181.8 121.9 185C122.1 185.4 122.1 186.1 122.1 186.5C122.4 200.1 123 217.6 114.4 228.9C113.8 229.5 112.6 228.6 113.2 227.8Z" fill="black"/>
<path d="M179.999 217.8C181.499 218.7 181.999 219.9 182.199 221.1C182.799 223.5 182.599 226.1 183.199 228.6C183.699 231 185.199 233.3 185.599 235.8C186.099 238.4 187.599 243.9 188.199 246.6C188.399 247.2 187.999 247.9 187.299 248C186.899 248.1 186.599 248 186.299 247.8C184.999 246.7 184.399 245.6 183.599 244.2C182.299 241.8 181.399 239.6 180.599 236.9C179.899 234.5 180.199 231.9 179.599 229.4C179.099 227 177.699 224.7 177.199 222.2C176.899 221 176.799 219.7 177.699 218.2C178.299 217.6 179.299 217.4 179.999 217.8Z" fill="black"/>
<path d="M187.2 244.2C168.1 243.2 152.5 237.2 137.3 210.1C150.1 221.4 165.2 225.7 181.1 227.7L183.2 236.9C183.6 238.5 186 243.2 187.2 244.2Z" fill="black"/>
<path d="M186.4 240.5C189.8 246.9 191.8 254.9 189.7 262C188.1 267 183.5 270.7 178.5 272.1C166.9 275.2 153.5 270.3 143.2 264.8C130.5 257.7 121.1 245.8 115.1 232.8C114.7 231.8 116.1 231 116.7 232C118.8 236.2 121.2 240.3 123.9 244C126.6 247.8 129.7 251.3 133.2 254.4C143.4 263.6 157.2 269.3 171 269.3C185.2 268.9 190.6 261.4 187.3 247.6C186.8 245.4 186 243.1 184.9 241.2C184.3 240.4 185.8 239.5 186.4 240.5Z" fill="black"/>
<path d="M225.1 120.399C226.9 128.799 220.9 137.799 220.9 160.199C220.9 183.099 216.7 207.999 199.4 225.299C184.5 240.199 167.4 239.599 147.3 223.899C144.5 221.699 134.7 214.299 132.2 211.799C129.3 208.899 127.7 206.799 126.3 204.599C125.1 202.599 125.4 190.999 123.7 188.299C119.3 180.999 118.4 188.899 112.7 182.499C104.8 173.899 95.2996 156.599 99.9996 125.999C107.6 76.3995 146.9 70.5995 176 76.0995C205.3 81.6995 220.3 98.2995 225.1 120.399Z" fill="white"/>
<path d="M117.7 191.399C115.4 187.599 112.5 184.199 109.8 180.699C107.1 176.999 104.9 173.099 103.1 168.899C92.8996 144.199 94.3996 111.899 112.5 91.0994C124.9 76.8994 144.5 72.1994 162.5 73.1994C180.5 74.2994 199.2 78.8994 212.5 91.8994C220.2 99.3994 225.1 109.399 227.3 119.799C228 123.099 227.5 126.699 226.7 129.799C224.4 138.499 222.2 146.799 222 155.799C222.1 169.199 221.7 182.899 217.8 195.799C215 204.399 211.7 212.999 206.5 220.499C201.1 228.099 193 234.199 183.7 235.999C165 239.799 147.5 227.999 135.1 215.199C134.6 214.599 135.3 213.899 135.9 214.299C143 219.699 150.3 224.699 158.2 228.099C181 238.599 199.9 228.899 209.9 206.899C218.3 190.899 220.7 173.599 220 155.699C220 151.199 220.2 146.699 220.8 142.199C221.4 135.699 223.6 129.199 223.5 122.799C221.8 112.399 217 102.399 209.8 94.6994C192.7 76.5994 159.9 71.2994 136.9 79.4994C109.8 89.0994 102.5 116.399 101 142.499C99.9996 158.099 104.6 173.399 116.4 184.099L121.1 188.999C122.7 191.199 119.3 193.799 117.7 191.399Z" fill="black"/>
<path d="M129.499 159.599C129.499 159.599 126.399 144.599 111.799 146.399C99.1994 147.999 94.7994 178.199 123.399 186.599" fill="white"/>
<path d="M122.1 173.499C119.8 172.199 118.2 169.999 118.1 167.299C118.2 165.299 118.5 162.999 118 160.999C117.7 159.099 115.7 158.599 114.2 158.699C112.6 158.999 111.6 160.999 111.3 162.599C111.3 162.699 111.2 162.999 111.2 163.099C111.1 163.599 110.3 163.599 110.1 163.099C108.8 159.199 111.7 154.899 115.9 155.399C121.8 155.799 122.6 161.999 121.5 166.699C120.9 168.699 121.7 170.499 122.8 172.199L123 172.499C123.5 173.099 122.7 173.899 122.1 173.499Z" fill="black"/>
<path d="M202.1 148.999C203.6 156.099 206.4 162.699 209.9 168.899C213 176.499 205 183.699 197.9 183.399C197.1 183.399 197 182.299 197.7 182.099C202.2 180.699 206.3 177.699 207 173.099C207.3 171.699 206.9 170.499 206.2 169.299C202.9 163.099 200.9 155.999 201.4 148.999C201.4 148.499 202.1 148.499 202.1 148.999Z" fill="black"/>
<path d="M129 159.7C126.7 153.8 121.7 148.2 115 148.3C114.4 148.2 113.4 148.4 112.8 148.4C111.1 148.5 109.7 149.1 108.4 150.3C102 156.7 103.1 168 108.3 175.1C110.1 177.6 112.4 179.8 115 181.6C117.6 183.4 120.5 184.8 123.6 186C124.3 186.2 124 187.3 123.3 187.2C116.6 185.8 110.2 182.5 105.8 177C99 168.8 97.6 155.1 105.7 147.1C107.5 145.5 110 144.3 112.5 144.3C113.3 144.3 114.5 144.1 115.3 144.3C119.5 144.5 123.5 146.6 126.1 149.9C128.4 152.7 129.7 156.1 130.1 159.5C130.1 160.1 129.2 160.3 129 159.7Z" fill="black"/>
<path d="M208.617 212.472C209.475 205.818 209.434 199.147 207.792 192.678C207.163 190.221 205.251 186.19 202.886 188.199C201.959 189.018 196.98 190.885 196.004 191.04C193.165 191.499 190.998 191.325 188.836 189.982C186.386 188.41 186.332 187.663 185.784 187.536C176.197 185.321 164.2 183.282 161.22 195.263C158.796 205.035 151.629 214.988 145.144 206.121C140.162 199.396 139.443 185.934 138.611 183.159C136.582 176.3 134.189 173.055 133.013 174.143C133.177 176.383 135.924 202.794 136.117 204.198C137.278 211.454 138.431 213.705 142.349 218.172C146.267 222.64 159.71 234.583 176.037 234.469C192.453 234.348 201.378 232.441 209.77 222.064C217.338 212.666 216.265 194.391 216.265 194.391C213.058 205.722 210.559 209.576 208.617 212.472ZM170.466 196.503C174.761 191.432 181.948 196.411 189.305 196.371C196.572 196.338 199.208 191.89 200.292 199.318C200.604 201.131 201.097 204.181 201.16 206.262C201.167 206.345 201.173 206.428 201.179 206.511C201.082 208.854 200.467 211.485 198.071 213.079C193.029 216.536 184.494 216.412 178.975 215.816C171.283 214.963 169.439 211.845 168.972 210.378C167.967 204.028 168.732 198.549 170.466 196.503Z" fill="black"/>
<path d="M226.984 92.5064C224.584 85.2064 221.184 78.9064 217.684 75.5064C210.384 68.3064 207.984 78.0064 207.984 78.0064C207.984 78.0064 196.884 57.3064 181.584 54.5064C170.684 52.5064 173.584 65.1064 173.584 65.1064C173.584 65.1064 160.484 51.0064 142.184 51.0064C127.684 51.0064 133.184 63.5064 133.184 63.5064C133.184 63.5064 132.884 48.7064 121.984 51.3064C111.084 53.9064 115.184 75.4064 115.184 75.4064C106.484 53.6064 91.6841 74.8064 89.1841 120.406C87.6841 147.506 95.6841 165.106 101.084 173.806C105.884 182.406 111.284 188.406 114.284 193.806C118.584 201.506 120.684 209.906 120.684 209.906C121.684 205.806 123.784 191.506 122.584 187.606L119.284 186.506C94.2841 176.906 98.7841 149.006 110.984 147.406C123.784 145.806 127.784 157.206 128.484 160.006C133.084 154.506 120.584 118.806 142.784 110.106C164.284 101.706 177.684 114.106 200.684 117.206C207.884 118.206 214.684 112.906 219.884 113.806C221.484 114.106 222.684 115.306 223.184 116.906C223.584 118.406 223.984 119.906 224.384 121.506C225.684 127.606 251.684 97.3064 226.984 92.5064Z" fill="black"/>
<path d="M183.645 174.715C183.645 174.715 174.245 180.615 163.645 180.515C153.045 180.415 151.745 172.115 151.645 167.615C151.645 167.615 153.045 174.115 159.445 176.515C165.745 178.915 183.645 174.715 183.645 174.715Z" fill="black"/>
<path d="M213.844 173.615C213.844 173.615 216.144 176.415 219.244 178.415C221.344 179.815 224.144 178.315 224.144 175.815C224.144 175.815 218.344 176.115 213.844 173.615Z" fill="black"/>
<path d="M187.144 148.015C181.744 147.515 168.144 146.415 162.944 145.915L158.944 145.615C155.644 145.415 153.044 148.215 152.444 151.415C152.244 152.415 152.244 154.115 152.244 155.115V159.215C152.244 161.715 152.144 164.315 153.044 166.715C154.644 172.315 159.744 176.815 165.744 176.115C166.344 176.015 170.044 175.615 170.744 175.515L178.844 174.615C181.444 174.415 183.844 173.715 186.144 172.315C189.344 170.415 192.444 167.515 192.244 163.415L192.444 159.415C192.644 154.415 194.044 148.515 187.144 148.015ZM187.444 144.715C192.144 145.115 195.344 150.015 195.044 154.515C195.044 155.115 194.844 158.915 194.744 159.615C194.744 160.415 194.544 164.015 194.444 164.715C193.944 171.515 186.344 176.315 180.144 177.215C176.944 177.615 170.244 178.515 167.044 178.915C166.244 179.015 165.144 179.115 164.344 179.215C163.944 179.215 163.044 179.115 162.644 179.115C154.144 178.015 148.744 169.315 148.944 161.215C148.944 159.915 148.944 156.515 148.944 155.115C148.944 154.415 148.944 152.615 149.044 151.915C149.344 148.415 151.244 145.015 154.444 143.115C155.844 142.315 157.544 141.915 159.244 142.015L163.344 142.415C168.344 143.015 182.144 144.315 187.444 144.715Z" fill="black"/>
<path d="M210.644 146.315C212.844 146.015 223.644 144.815 225.644 144.615C226.144 144.615 227.444 144.415 227.844 144.415C232.144 143.815 234.144 148.515 234.544 152.015C234.744 155.115 234.544 158.115 234.644 161.115C234.644 163.215 234.444 165.315 233.944 167.315C232.644 172.715 228.844 178.415 222.544 176.615C221.044 176.315 218.044 175.915 216.644 175.615L215.144 175.315C212.244 174.815 209.844 172.815 208.244 170.615C205.244 167.115 205.844 162.415 205.544 158.215C205.144 154.015 205.244 147.515 210.644 146.315ZM211.044 149.215C207.944 150.615 208.744 155.315 208.744 158.115L208.944 164.115C209.044 167.915 212.044 171.715 215.644 172.715C216.544 172.915 219.044 173.415 220.044 173.615L222.944 174.215C230.144 176.515 232.944 166.515 232.844 161.015C232.544 156.415 233.944 150.915 230.644 147.215C229.844 146.415 229.044 146.215 228.144 146.415C227.644 146.515 226.344 146.715 225.944 146.815C223.944 147.215 213.144 148.915 211.044 149.215Z" fill="black"/>
<path d="M150.544 155.615C149.744 157.415 149.044 157.215 147.644 157.215L144.744 157.115C141.044 156.915 136.944 156.615 133.244 156.115C131.244 155.815 129.144 155.515 127.144 155.015C126.344 154.815 125.844 154.015 126.044 153.215C126.244 152.515 126.844 152.015 127.544 152.115L133.344 152.415L139.144 152.615C141.044 152.715 145.944 152.815 147.844 152.915C148.844 152.915 149.744 153.015 150.744 152.715C151.144 152.615 151.544 152.815 151.644 153.215C151.744 153.415 151.644 153.515 151.644 153.715L150.544 155.615Z" fill="black"/>
<path d="M193.144 153.515C196.744 151.515 206.244 148.715 208.044 154.115C208.844 155.515 206.744 156.815 205.844 155.415C205.844 155.615 205.344 155.415 205.144 155.415C201.344 155.115 197.444 155.715 193.644 156.015C192.044 156.215 191.744 154.115 193.144 153.515Z" fill="black"/>
<path d="M198.797 203.534C193.586 210.677 180.807 208.01 176.34 201.299C175.786 200.484 176.628 199.519 177.486 199.77C179.319 200.353 180.956 200.971 182.655 201.375C187.555 202.622 192.581 203.44 197.511 202.04C198.459 201.665 199.361 202.721 198.797 203.534Z" fill="black"/>
<path d="M169.433 165.048C167.033 164.948 165.233 162.948 165.433 160.548L165.533 157.748C165.633 155.348 167.633 153.548 170.033 153.748C172.433 153.848 174.233 155.848 174.033 158.248L173.933 161.048C173.833 163.348 171.833 165.148 169.433 165.048Z" fill="black"/>
<path d="M211.533 166.548C209.333 166.448 207.633 164.548 207.733 162.348L207.833 159.748C207.933 157.548 209.833 155.848 212.033 155.948C214.233 156.048 215.933 157.948 215.833 160.148L215.733 162.748C215.633 164.948 213.733 166.648 211.533 166.548Z" fill="black"/>
<path d="M178.433 159.647C175.133 157.447 171.533 155.947 167.533 156.747C166.233 156.947 164.933 157.347 164.133 158.247C163.833 158.647 163.133 158.547 163.133 157.947C163.233 155.947 164.933 154.647 166.533 153.847C169.633 152.247 173.933 152.547 176.733 154.647C177.733 155.247 181.133 158.947 179.333 159.747C178.933 159.947 178.733 159.847 178.433 159.647Z" fill="black"/>
<path d="M207.033 160.147C207.033 155.947 212.233 154.447 215.433 155.947C217.233 156.747 218.533 158.347 219.033 160.247C219.233 160.847 218.333 161.347 217.933 160.847C216.233 158.847 213.333 157.847 211.033 159.047C210.333 159.447 210.233 159.747 210.033 160.147C210.033 162.147 207.133 162.047 207.033 160.147Z" fill="black"/>
<path d="M183.233 143.147C185.333 143.847 187.433 141.947 187.033 139.647C186.833 138.447 186.333 137.247 185.333 136.347C182.333 133.647 169.933 131.247 162.433 134.747C155.833 137.947 173.633 139.947 183.233 143.147Z" fill="black"/>
<path d="M213.133 144.747C211.433 145.347 209.633 143.547 209.933 141.447C210.033 140.347 210.433 139.247 211.233 138.447C213.633 136.047 221.833 134.147 227.033 137.847C231.533 140.947 220.933 141.847 213.133 144.747Z" fill="black"/>
</g>
</svg>
